<?xml version="1.0" encoding="UTF-8"?>
<svg width="36px" height="36px" viewBox="0 0 36 36" version="1.1" xmlns="http://www.w3.org/2000/svg" xmlns:xlink="http://www.w3.org/1999/xlink">
    <title>编组 11</title>
    <g id="页面-1" stroke="none" stroke-width="1" fill="none" fill-rule="evenodd">
        <g id="领取会员卡备份-2" transform="translate(-127.000000, -545.000000)">
            <g id="编组-11" transform="translate(127.000000, 545.000000)">
                <rect id="矩形" fill="#D8D8D8" opacity="0" x="0" y="0" width="36" height="36"></rect>
                <g id="jiesuo" transform="translate(5.400000, 4.500000)">
                    <path d="M19.740061,27 L3.65990231,27 C1.63884174,27 0,25.2876545 0,23.1757936 L0,13.0022231 C0,10.8905542 1.63884174,9.17817033 3.65990231,9.17817033 L19.740061,9.17817033 C21.7611215,9.17817033 23.4,10.8905542 23.4,13.0022231 L23.4,23.1774444 C23.4,25.2891516 21.7611215,27 19.740061,27 Z" id="Fill-1" fill="#4BE2AC"></path>
                    <g id="编组" transform="translate(3.784933, 0.000000)">
                        <path d="M7.91585729,23.7089131 L7.86618317,23.7089131 C6.44246122,23.6821842 5.28526002,22.424212 5.28526002,20.9068063 L5.28526002,20.1049733 C4.15476968,19.2074746 3.51536238,17.7896118 3.57264193,16.3076009 C3.6584694,14.0102439 5.44471688,12.0998107 7.63886529,11.9582317 C8.85187639,11.8779985 10.0062118,12.3136379 10.8895807,13.1799262 C11.7608986,14.0354272 12.2590726,15.2413822 12.2590726,16.4882983 C12.2590726,17.911382 11.6133826,19.251123 10.543405,20.1033225 L10.543405,20.9603207 C10.543405,21.7041093 10.2635472,22.4006795 9.75637154,22.9211588 C9.26664793,23.4275877 8.60490197,23.7108608 7.91585729,23.7089131 Z M7.91427741,14.1501722 C7.86618317,14.1501722 7.8179787,14.1518229 7.76988445,14.1549708 C6.64112095,14.2287547 5.72314178,15.2115539 5.67795009,16.3939763 C5.64348684,17.2610324 6.0717424,18.0766471 6.79006982,18.512133 C7.16034775,18.7369011 7.39214806,19.1551503 7.39214806,19.6048785 L7.39214806,20.9068063 C7.39214806,21.2275471 7.62696114,21.5027202 7.90380617,21.5075188 L7.91427741,21.5075188 C8.09941638,21.5075188 8.22283011,21.4100489 8.27996269,21.351851 C8.33867515,21.2920408 8.43655374,21.1615563 8.43655374,20.9618178 L8.43655374,19.6048785 C8.43754575,19.1548432 8.66659046,18.7390125 9.03848501,18.512133 C9.7247741,18.0937302 10.1521846,17.3186161 10.1521846,16.4899491 C10.1521846,15.8373345 9.90087472,15.2319385 9.4463492,14.7853965 C9.02797702,14.371946 8.48762402,14.1501722 7.91427741,14.1501722 Z M5.7539568,20.4414019 C5.7578568,20.4453019 5.7621568,20.4453019 5.7660568,20.4496019 C5.7621568,20.4453019 5.7578568,20.4414019 5.7539568,20.4414019 Z" id="Fill-2" fill="#FFFFFF"></path>
                        <path d="M14.3568856,7.48935731 C15.1590197,7.48935731 15.747467,6.68272567 15.5141235,5.87924194 C14.5118968,2.43247716 11.41329,-0.0707604827 7.77591001,0.00152618086 C3.43570743,0.0864044672 0,3.88227967 0,8.41714493 L0,11.4612849 C0,12.1311362 0.483073449,12.7161092 1.12417085,12.7602183 C1.45642163,12.7831366 1.78308774,12.6613664 2.0263513,12.4235459 C2.26961486,12.185879 2.40768833,11.8534295 2.4078353,11.5053556 L2.4078353,8.39196168 C2.4078353,5.19994693 4.90752363,2.49697083 7.96248188,2.51735544 C10.4260169,2.53309497 12.5118154,4.24398171 13.2025502,6.58840367 C13.3605742,7.11986228 13.824138,7.48935731 14.3568856,7.48935731 Z" id="Fill-4" fill="#4BE2AC"></path>
                    </g>
                    <path d="M4.98875845,12.7633662 C5.65399482,12.7633662 6.19276795,12.2004285 6.19276795,11.5053556 L6.19276795,9.17817033 L3.78493265,9.17817033 L3.78493265,11.5068528 C3.78493265,12.2004285 4.32370578,12.7633662 4.98875845,12.7633662 Z" id="Fill-5" fill="#06CC76"></path>
                </g>
            </g>
        </g>
    </g>
</svg>